<svg xmlns="http://www.w3.org/2000/svg" viewBox="0 0 800 500" width="100%" height="100%">
  <defs>
    <linearGradient id="chironBlue" x1="0%" y1="0%" x2="0%" y2="100%">
      <stop offset="0%" stop-color="#2a82e4"/>
      <stop offset="40%" stop-color="#0055b3"/>
      <stop offset="85%" stop-color="#003366"/>
      <stop offset="100%" stop-color="#001a33"/>
    </linearGradient>
    <radialGradient id="bcSh" cx="50%" cy="50%" r="50%">
      <stop offset="0%" stop-color="rgba(0,0,0,0.6)"/>
      <stop offset="100%" stop-color="rgba(0,0,0,0)"/>
    </radialGradient>
  </defs>

  <ellipse cx="400" cy="435" rx="360" ry="24" fill="url(#bcSh)"/>

  <circle cx="210" cy="370" r="55" fill="#111"/>
  <circle cx="600" cy="370" r="58" fill="#111"/>

  <!-- Chiron Sculpted Carbon Monocoque Front Body (French Blue) -->
  <path d="M 80 375 Q 90 320 180 300 L 320 280 Q 370 190 470 190 L 530 195 Q 650 215 730 330 L 720 380 L 80 380 Z" fill="url(#chironBlue)" stroke="#002b55" stroke-width="1.5"/>

  <!-- Signature Aluminium C-Line Structural Profile -->
  <path d="M 520 195 Q 360 195 340 280 Q 330 360 480 370" fill="none" stroke="#e6f0fa" stroke-width="8" stroke-linecap="round"/>

  <!-- Bugatti Horseshoe Front Grille -->
  <path d="M 90 335 Q 110 320 130 335 L 125 365 Q 110 370 95 365 Z" fill="#111" stroke="#e6f0fa" stroke-width="3"/>

  <!-- Quad LED Projector Headlights -->
  <rect x="130" y="325" width="8" height="6" fill="#fff"/>
  <rect x="142" y="322" width="8" height="6" fill="#fff"/>
  <rect x="154" y="319" width="8" height="6" fill="#fff"/>
  <rect x="166" y="316" width="8" height="6" fill="#fff"/>

  <!-- Diamond Turned Chiron Lightweight Alloy Wheels -->
  <circle cx="215" cy="380" r="75" fill="#151515"/>
  <circle cx="215" cy="380" r="52" fill="#222" stroke="#4da6ff" stroke-width="2"/>
  <circle cx="215" cy="380" r="14" fill="#0055b3"/>

  <circle cx="595" cy="380" r="78" fill="#151515"/>
  <circle cx="595" cy="380" r="55" fill="#222" stroke="#4da6ff" stroke-width="2"/>
  <circle cx="595" cy="380" r="15" fill="#0055b3"/>
</svg>
