<svg xmlns="http://www.w3.org/2000/svg" viewBox="0 0 800 500" width="100%" height="100%">
  <defs>
    <linearGradient id="f1Silver" x1="0%" y1="0%" x2="0%" y2="100%">
      <stop offset="0%" stop-color="#ffffff"/>
      <stop offset="35%" stop-color="#bcc2ca"/>
      <stop offset="80%" stop-color="#7a828e"/>
      <stop offset="100%" stop-color="#3d424a"/>
    </linearGradient>
    <radialGradient id="f1Sh" cx="50%" cy="50%" r="50%">
      <stop offset="0%" stop-color="rgba(0,0,0,0.6)"/>
      <stop offset="100%" stop-color="rgba(0,0,0,0)"/>
    </radialGradient>
  </defs>

  <ellipse cx="400" cy="435" rx="360" ry="24" fill="url(#f1Sh)"/>

  <circle cx="210" cy="370" r="55" fill="#111"/>
  <circle cx="600" cy="370" r="58" fill="#111"/>

  <!-- Gordon Murray Central Cockpit Monocoque Silhouette -->
  <path d="M 90 375 Q 110 320 200 300 L 320 280 Q 370 190 460 190 L 520 195 Q 650 220 730 330 L 720 380 L 90 380 Z" fill="url(#f1Silver)" stroke="#444b54" stroke-width="1.5"/>

  <!-- Central Seating Canopy Greenhouse & Roof Scoop -->
  <path d="M 330 275 L 390 195 L 500 195 L 580 275 Z" fill="#151b22" stroke="#222" stroke-width="2"/>
  <path d="M 340 270 L 395 202 L 445 202 L 445 270 Z" fill="rgba(180,215,245,0.4)"/>
  <path d="M 455 270 L 455 202 L 495 202 L 565 270 Z" fill="rgba(180,215,245,0.4)"/>
  <!-- Roof Air Intake Scoop -->
  <polygon points="460,195 490,175 510,175 490,195" fill="#111"/>

  <!-- Dihedral Door Cut Lines & Side Air Diffusers -->
  <path d="M 280 300 L 370 200 L 460 360" fill="none" stroke="#222" stroke-width="2"/>

  <!-- 5-Spoke OZ Racing Magnesium Lightweight Wheels -->
  <circle cx="215" cy="380" r="75" fill="#151515"/>
  <circle cx="215" cy="380" r="52" fill="#adb5bf" stroke="#222" stroke-width="2"/>
  <circle cx="215" cy="380" r="14" fill="#151515"/>

  <circle cx="595" cy="380" r="78" fill="#151515"/>
  <circle cx="595" cy="380" r="55" fill="#adb5bf" stroke="#222" stroke-width="2"/>
  <circle cx="595" cy="380" r="15" fill="#151515"/>
</svg>
